<?xml version="1.0" encoding="utf-8"?>
<!-- Generator: Adobe Illustrator 24.1.1, SVG Export Plug-In . SVG Version: 6.00 Build 0)  -->
<svg version="1.1" id="Layer_1" xmlns="http://www.w3.org/2000/svg" xmlns:xlink="http://www.w3.org/1999/xlink" x="0px" y="0px"
	 viewBox="0 0 227.3 219.7" style="enable-background:new 0 0 227.3 219.7;" xml:space="preserve">
<style type="text/css">
	.st0{clip-path:url(#SVGID_2_);fill:#393280;}
	.st1{fill:#FFFFFF;}
	.st2{font-family:'Arial-BoldMT';}
	.st3{font-size:15px;}
	.st4{font-size:15.0001px;}
	.st5{clip-path:url(#SVGID_4_);fill:#FFFFFF;}
	.st6{font-family:'Garamond-Bold';}
	.st7{font-size:19px;}
	.st8{clip-path:url(#SVGID_6_);fill:#3A3280;}
	.st9{clip-path:url(#SVGID_6_);fill:#393280;}
	.st10{clip-path:url(#SVGID_6_);fill:#FFFFFF;}
	.st11{clip-path:url(#SVGID_6_);fill:#DD1419;}
	.st12{clip-path:url(#SVGID_6_);fill:#DD161A;}
	.st13{clip-path:url(#SVGID_6_);fill:#4D266E;}
</style>
<g>
	<defs>
		<rect id="SVGID_1_" x="-140" y="-128.3" width="510" height="510"/>
	</defs>
	<clipPath id="SVGID_2_">
		<use xlink:href="#SVGID_1_"  style="overflow:visible;"/>
	</clipPath>
	<path class="st0" d="M217.8,111c0,57.6-46.7,104.3-104.3,104.3C55.9,215.2,9.3,168.5,9.3,111C9.3,53.4,55.9,6.7,113.5,6.7
		C171.1,6.7,217.8,53.4,217.8,111"/>
</g>
<text transform="matrix(-0.4919 -0.8706 0.8706 -0.4919 41.9921 159.5214)" class="st1 st2 st3">K</text>
<text transform="matrix(-0.3765 -0.9264 0.9264 -0.3765 36.5642 149.9293)" class="st1 st2 st3">A</text>
<text transform="matrix(-0.2534 -0.9674 0.9674 -0.2534 32.3922 139.6464)" class="st1 st2 st3">R</text>
<text transform="matrix(-0.1355 -0.9908 0.9908 -0.1355 29.6497 128.8633)" class="st1 st2 st4">T</text>
<text transform="matrix(-2.819000e-02 -0.9996 0.9996 -2.819000e-02 28.3643 120.5132)" class="st1 st2 st4">A</text>
<text transform="matrix(9.099001e-02 -0.9959 0.9959 9.099001e-02 28.1313 109.4029)" class="st1 st2 st3">L</text>
<text transform="matrix(0.1692 -0.9856 0.9856 0.1692 29.123 100.1032)" class="st1 st2 st3"> </text>
<text transform="matrix(0.249 -0.9685 0.9685 0.249 29.7773 95.6719)" class="st1 st2 st3">F</text>
<text transform="matrix(0.3534 -0.9355 0.9355 0.3534 31.9189 87.2292)" class="st1 st2 st3">A</text>
<text transform="matrix(0.4512 -0.8924 0.8924 0.4512 35.4812 77.8813)" class="st1 st2 st3">T</text>
<text transform="matrix(0.5227 -0.8525 0.8525 0.5227 39.8858 69.3737)" class="st1 st2 st3">İ</text>
<text transform="matrix(0.5987 -0.801 0.801 0.5987 42.0839 65.4681)" class="st1 st2 st3">N</text>
<text transform="matrix(0.6698 -0.7425 0.7425 0.6698 48.9286 56.5247)" class="st1 st2 st3"> </text>
<text transform="matrix(0.7354 -0.6777 0.6777 0.7354 51.8418 53.0831)" class="st1 st2 st3">R</text>
<text transform="matrix(0.8165 -0.5773 0.5773 0.8165 60.0152 45.6003)" class="st1 st2 st4">Ü</text>
<text transform="matrix(0.881 -0.4731 0.4731 0.881 69.1887 39.1912)" class="st1 st2 st3">Ş</text>
<text transform="matrix(0.9293 -0.3692 0.3692 0.9293 78.2381 34.3411)" class="st1 st2 st3">T</text>
<text transform="matrix(0.967 -0.255 0.255 0.967 87.159 30.835)" class="st1 st2 st4">Ü</text>
<text transform="matrix(0.9863 -0.1651 0.1651 0.9863 97.9007 28.159)" class="st1 st2 st4"> </text>
<text transform="matrix(0.9965 -8.311000e-02 8.311000e-02 0.9965 102.3997 27.3377)" class="st1 st2 st3">Z</text>
<text transform="matrix(0.9992 4.120000e-02 -4.120000e-02 0.9992 111.8275 26.4593)" class="st1 st2 st3">O</text>
<text transform="matrix(0.9848 0.1736 -0.1736 0.9848 123.7333 27.042)" class="st1 st2 st3">R</text>
<text transform="matrix(0.9572 0.2895 -0.2895 0.9572 134.6891 29.041)" class="st1 st2 st3">L</text>
<text transform="matrix(0.916 0.4012 -0.4012 0.916 143.7461 31.7071)" class="st1 st2 st4">U</text>
<text transform="matrix(0.8756 0.483 -0.483 0.8756 153.9476 36.3976)" class="st1 st2 st3"> </text>
<text transform="matrix(0.8312 0.556 -0.556 0.8312 157.5392 38.1426)" class="st1 st2 st4">A</text>
<text transform="matrix(0.7523 0.6588 -0.6588 0.7523 166.7136 44.3413)" class="st1 st2 st4">N</text>
<text transform="matrix(0.6605 0.7508 -0.7508 0.6605 175.1105 51.6301)" class="st1 st2 st4">A</text>
<text transform="matrix(0.5586 0.8294 -0.8294 0.5586 182.4541 59.9983)" class="st1 st2 st4">D</text>
<text transform="matrix(0.4444 0.8958 -0.8958 0.4444 188.6539 69.216)" class="st1 st2 st3">O</text>
<text transform="matrix(0.3299 0.944 -0.944 0.3299 193.8582 79.9567)" class="st1 st2 st4">L</text>
<text transform="matrix(0.2142 0.9768 -0.9768 0.2142 196.9941 88.8977)" class="st1 st2 st3">U</text>
<text transform="matrix(0.1234 0.9924 -0.9924 0.1234 199.3271 99.8894)" class="st1 st2 st3"> </text>
<text transform="matrix(4.143000e-02 0.9991 -0.9991 4.143000e-02 199.9568 104.4106)" class="st1 st2 st4">L</text>
<text transform="matrix(-4.083000e-02 0.9992 -0.9992 -4.083000e-02 200.1304 113.9587)" class="st1 st2 st3">İ</text>
<text transform="matrix(-0.1271 0.9919 -0.9919 -0.1271 200.1338 118.4886)" class="st1 st2 st3">S</text>
<text transform="matrix(-0.2439 0.9698 -0.9698 -0.2439 198.7433 128.7462)" class="st1 st2 st4">E</text>
<text transform="matrix(-0.3573 0.934 -0.934 -0.3573 196.287 138.7275)" class="st1 st2 st3">S</text>
<text transform="matrix(-0.4367 0.8996 -0.8996 -0.4367 192.391 148.3715)" class="st1 st2 st3">İ</text>
<g>
	<defs>
		<rect id="SVGID_3_" x="-140" y="-128.3" width="510" height="510"/>
	</defs>
	<clipPath id="SVGID_4_">
		<use xlink:href="#SVGID_3_"  style="overflow:visible;"/>
	</clipPath>
	<path class="st5" d="M192.5,115c0,43.8-35.5,79.2-79.2,79.2C69.5,194.3,34,158.8,34,115c0-43.8,35.5-79.2,79.2-79.2
		C157.1,35.8,192.5,71.2,192.5,115"/>
</g>
<text transform="matrix(1 0 0 1 97.7617 210.8369)"><tspan x="0" y="0" class="st1 st6 st7">199</tspan><tspan x="26.4" y="0" class="st1 st6 st7">4</tspan></text>
<g>
	<defs>
		<rect id="SVGID_5_" x="-140" y="-128.3" width="510" height="510"/>
	</defs>
	<clipPath id="SVGID_6_">
		<use xlink:href="#SVGID_5_"  style="overflow:visible;"/>
	</clipPath>
	<path class="st8" d="M108.2,152.5H52.1l-1.7,1.9h56.1c0,0,2,4.9,7.1,5.1c0,0,3.4,0.8,8.1-5.2h55l-1.7-1.8h-55.7H108.2z"/>
	<path class="st8" d="M170.8,147.1c0,0-10.7-0.1-12.8-0.8c0,0-13.6,1.1-17.2,2.4c0,0-4.4,1.3-4.5,1.8c-0.1,0.5,30.7-2.1,30.4-2.8
		L170.8,147.1z"/>
	<path class="st8" d="M158,146.3c0,0,8.4-0.5,12.8,0.8c4.4,1.3-12,1.7-12,1.7L158,146.3z"/>
	<path class="st9" d="M119.7,148.8c0,0,41.7-35.6,49.3-38c0,0-2.2-2.3-8.8,0.2C160.2,111,121.5,143.6,119.7,148.8"/>
	<path class="st9" d="M115.9,145.7c0,0,31.6-43.1,36-44.6c4.4-1.5-6.5-1.8-9,2C142.9,103.1,128.2,116.6,115.9,145.7"/>
	<path class="st8" d="M158.4,128.3c1.1,0,7.7,0.3,11.4,2.5c1.2,0.7,1,2.7-0.3,3.1c-9.3,3-40.4,13.3-40.8,15.5c0,0,25.2-20,29.3-21.1
		C158.2,128.3,158.3,128.3,158.4,128.3"/>
	<polygon class="st10" points="129.7,147.4 127.9,150.3 131.1,149.1 	"/>
	<path class="st8" d="M55.4,147.2c0,0,10.7-0.1,12.8-0.9c0,0,13.6,1.1,17.3,2.3c0,0,4.4,1.3,4.6,1.7c0.1,0.5-30.7-1.9-30.4-2.6
		L55.4,147.2z"/>
	<path class="st8" d="M68.2,146.3c0,0-8.4-0.4-12.8,0.9c-4.4,1.3,12.1,1.6,12.1,1.6L68.2,146.3z"/>
	<path class="st9" d="M106.5,148.6c0,0-41.9-35.3-49.6-37.7c0,0,2.2-2.3,8.8,0.1C65.8,111,104.6,143.4,106.5,148.6"/>
	<path class="st9" d="M110.2,145.4c0,0-31.9-42.9-36.3-44.3c-4.4-1.5,6.4-1.8,9,1.9C83,103,97.8,116.4,110.2,145.4"/>
	<path class="st8" d="M67.6,128.4c-1.1,0-7.7,0.4-11.4,2.6c-1.2,0.7-0.9,2.7,0.3,3.1c9.3,3,40.4,13,40.9,15.2
		c0,0-25.4-19.8-29.5-20.9C67.9,128.4,67.8,128.4,67.6,128.4"/>
	<polygon class="st10" points="96.5,147.3 98.3,150.1 95.1,149 	"/>
	<path class="st11" d="M90,55.2c0,0,24-3.7,43.2,0c0,0-15,11.1-19.6,50.8C113.6,106,106.7,55.6,90,55.2"/>
	<path class="st9" d="M118.3,46.5c0,2.9-2.1,5.3-4.7,5.3c-2.6,0-4.7-2.4-4.7-5.3c0-2.9,2.1-5.3,4.7-5.3
		C116.2,41.2,118.3,43.6,118.3,46.5"/>
	<path class="st9" d="M94.7,66.7c0,2.9-2.1,5.3-4.7,5.3c-2.6,0-4.7-2.4-4.7-5.3c0-2.9,2.1-5.2,4.7-5.2
		C92.6,61.5,94.7,63.8,94.7,66.7"/>
	<path class="st9" d="M140.9,66.7c0,2.9-2.1,5.3-4.7,5.3c-2.6,0-4.7-2.4-4.7-5.3c0-2.9,2.1-5.2,4.7-5.2
		C138.8,61.5,140.9,63.8,140.9,66.7"/>
	<path class="st12" d="M111.6,113.3c0,0-2.1-32.1-17.2-40.5c0,0-3.2,9.2-15.3,10.4c0,0,6.1,0.9,8.9,0.7c0,0-2,6.9-18.7,5.5
		c0,0,6.1,12.1,26.5,3.6C95.8,93.1,103.6,94.2,111.6,113.3"/>
	<path class="st12" d="M115.1,113.3c0,0,2.1-32.1,17.2-40.5c0,0,3.2,9.2,15.3,10.4c0,0-6.1,0.9-8.9,0.7c0,0,2,6.9,18.7,5.5
		c0,0-6.1,12.1-26.5,3.6C130.9,93.1,123.1,94.2,115.1,113.3"/>
	<polygon class="st13" points="153.4,72.6 150.4,82.9 153.4,87 158.5,87 163.4,79 155.7,79.8 	"/>
	<polygon class="st13" points="72.9,72.6 75.8,82.9 72.9,87 67.7,87 62.9,79 70.5,79.8 	"/>
</g>
</svg>
